<mxfile host="Electron" agent="Mozilla/5.0 (Windows NT 10.0; Win64; x64) AppleWebKit/537.36 (KHTML, like Gecko) draw.io/24.7.17 Chrome/128.0.6613.36 Electron/32.0.1 Safari/537.36" version="24.7.17">
  <diagram name="Page-1" id="xocxCrXr6AKo-NlmTyc1">
    <mxGraphModel dx="1993" dy="1244" grid="1" gridSize="10" guides="1" tooltips="1" connect="1" arrows="1" fold="1" page="1" pageScale="1" pageWidth="850" pageHeight="1100" math="0" shadow="0">
      <root>
        <mxCell id="0" />
        <mxCell id="1" parent="0" />
        <mxCell id="iPJwZdFhrFqHTdRpXEm0-1" value="220" style="rounded=0;whiteSpace=wrap;html=1;dashed=1;fillColor=none;" vertex="1" parent="1">
          <mxGeometry x="80" y="100" width="40" height="20" as="geometry" />
        </mxCell>
        <mxCell id="iPJwZdFhrFqHTdRpXEm0-2" value="221" style="rounded=0;whiteSpace=wrap;html=1;dashed=1;fillColor=none;" vertex="1" parent="1">
          <mxGeometry x="120" y="100" width="40" height="20" as="geometry" />
        </mxCell>
        <mxCell id="iPJwZdFhrFqHTdRpXEm0-3" value="263" style="rounded=0;whiteSpace=wrap;html=1;dashed=1;fillColor=none;" vertex="1" parent="1">
          <mxGeometry x="180" y="100" width="40" height="20" as="geometry" />
        </mxCell>
        <mxCell id="iPJwZdFhrFqHTdRpXEm0-4" value="265" style="rounded=0;whiteSpace=wrap;html=1;dashed=1;fillColor=none;" vertex="1" parent="1">
          <mxGeometry x="220" y="100" width="40" height="20" as="geometry" />
        </mxCell>
        <mxCell id="iPJwZdFhrFqHTdRpXEm0-5" value="280" style="rounded=0;whiteSpace=wrap;html=1;dashed=1;fillColor=none;" vertex="1" parent="1">
          <mxGeometry x="280" y="100" width="40" height="20" as="geometry" />
        </mxCell>
        <mxCell id="iPJwZdFhrFqHTdRpXEm0-6" value="317" style="rounded=0;whiteSpace=wrap;html=1;dashed=1;fillColor=none;" vertex="1" parent="1">
          <mxGeometry x="380" y="100" width="40" height="20" as="geometry" />
        </mxCell>
        <mxCell id="iPJwZdFhrFqHTdRpXEm0-7" value="曹 - 魏" style="rounded=0;whiteSpace=wrap;html=1;dashed=1;fillColor=none;" vertex="1" parent="1">
          <mxGeometry x="80" y="140" width="180" height="20" as="geometry" />
        </mxCell>
        <mxCell id="iPJwZdFhrFqHTdRpXEm0-8" value="孙 - 吴" style="rounded=0;whiteSpace=wrap;html=1;dashed=1;fillColor=none;" vertex="1" parent="1">
          <mxGeometry x="80" y="170" width="240" height="20" as="geometry" />
        </mxCell>
        <mxCell id="iPJwZdFhrFqHTdRpXEm0-9" value="刘 - 蜀" style="rounded=0;whiteSpace=wrap;html=1;dashed=1;fillColor=none;" vertex="1" parent="1">
          <mxGeometry x="120" y="200" width="100" height="20" as="geometry" />
        </mxCell>
        <mxCell id="iPJwZdFhrFqHTdRpXEm0-10" value="司马氏 - 西晋" style="rounded=0;whiteSpace=wrap;html=1;dashed=1;fillColor=none;" vertex="1" parent="1">
          <mxGeometry x="220" y="140" width="200" height="20" as="geometry" />
        </mxCell>
        <mxCell id="iPJwZdFhrFqHTdRpXEm0-12" value="304" style="rounded=0;whiteSpace=wrap;html=1;dashed=1;fillColor=none;" vertex="1" parent="1">
          <mxGeometry x="340" y="100" width="40" height="20" as="geometry" />
        </mxCell>
        <mxCell id="iPJwZdFhrFqHTdRpXEm0-13" value="十六国" style="rounded=0;whiteSpace=wrap;html=1;dashed=1;fillColor=none;" vertex="1" parent="1">
          <mxGeometry x="340" y="220" width="300" height="20" as="geometry" />
        </mxCell>
        <mxCell id="iPJwZdFhrFqHTdRpXEm0-14" value="439" style="rounded=0;whiteSpace=wrap;html=1;dashed=1;fillColor=none;" vertex="1" parent="1">
          <mxGeometry x="600" y="100" width="40" height="20" as="geometry" />
        </mxCell>
        <mxCell id="iPJwZdFhrFqHTdRpXEm0-15" value="拓跋 - 北魏" style="rounded=0;whiteSpace=wrap;html=1;dashed=1;fillColor=none;" vertex="1" parent="1">
          <mxGeometry x="520" y="240" width="320" height="20" as="geometry" />
        </mxCell>
        <mxCell id="iPJwZdFhrFqHTdRpXEm0-16" value="386" style="rounded=0;whiteSpace=wrap;html=1;dashed=1;fillColor=none;" vertex="1" parent="1">
          <mxGeometry x="520" y="100" width="40" height="20" as="geometry" />
        </mxCell>
        <mxCell id="iPJwZdFhrFqHTdRpXEm0-17" value="534" style="rounded=0;whiteSpace=wrap;html=1;dashed=1;fillColor=none;" vertex="1" parent="1">
          <mxGeometry x="800" y="100" width="40" height="20" as="geometry" />
        </mxCell>
        <mxCell id="iPJwZdFhrFqHTdRpXEm0-18" value="司马氏 - 东晋" style="rounded=0;whiteSpace=wrap;html=1;dashed=1;fillColor=none;" vertex="1" parent="1">
          <mxGeometry x="420" y="320" width="180" height="20" as="geometry" />
        </mxCell>
        <mxCell id="iPJwZdFhrFqHTdRpXEm0-19" value="318" style="rounded=0;whiteSpace=wrap;html=1;dashed=1;fillColor=none;" vertex="1" parent="1">
          <mxGeometry x="420" y="100" width="40" height="20" as="geometry" />
        </mxCell>
        <mxCell id="iPJwZdFhrFqHTdRpXEm0-20" value="420" style="rounded=0;whiteSpace=wrap;html=1;dashed=1;fillColor=none;" vertex="1" parent="1">
          <mxGeometry x="560" y="100" width="40" height="20" as="geometry" />
        </mxCell>
        <mxCell id="iPJwZdFhrFqHTdRpXEm0-21" value="479" style="rounded=0;whiteSpace=wrap;html=1;dashed=1;fillColor=none;" vertex="1" parent="1">
          <mxGeometry x="680" y="100" width="40" height="20" as="geometry" />
        </mxCell>
        <mxCell id="iPJwZdFhrFqHTdRpXEm0-22" value="刘 - 南朝 -宋" style="rounded=0;whiteSpace=wrap;html=1;dashed=1;fillColor=none;" vertex="1" parent="1">
          <mxGeometry x="560" y="340" width="160" height="20" as="geometry" />
        </mxCell>
        <mxCell id="iPJwZdFhrFqHTdRpXEm0-23" value="拓跋 - 西魏" style="rounded=0;whiteSpace=wrap;html=1;dashed=1;fillColor=none;" vertex="1" parent="1">
          <mxGeometry x="840" y="240" width="480" height="20" as="geometry" />
        </mxCell>
        <mxCell id="iPJwZdFhrFqHTdRpXEm0-24" value="拓跋 - 东魏" style="rounded=0;whiteSpace=wrap;html=1;dashed=1;fillColor=none;" vertex="1" parent="1">
          <mxGeometry x="800" y="270" width="480" height="20" as="geometry" />
        </mxCell>
        <mxCell id="iPJwZdFhrFqHTdRpXEm0-25" value="535" style="rounded=0;whiteSpace=wrap;html=1;dashed=1;fillColor=none;" vertex="1" parent="1">
          <mxGeometry x="840" y="100" width="40" height="20" as="geometry" />
        </mxCell>
        <mxCell id="iPJwZdFhrFqHTdRpXEm0-26" value="557" style="rounded=0;whiteSpace=wrap;html=1;dashed=1;fillColor=none;" vertex="1" parent="1">
          <mxGeometry x="1280" y="100" width="40" height="20" as="geometry" />
        </mxCell>
        <mxCell id="iPJwZdFhrFqHTdRpXEm0-27" value="550" style="rounded=0;whiteSpace=wrap;html=1;dashed=1;fillColor=none;" vertex="1" parent="1">
          <mxGeometry x="1240" y="100" width="40" height="20" as="geometry" />
        </mxCell>
        <mxCell id="iPJwZdFhrFqHTdRpXEm0-28" value="萧 - 南朝 -齐" style="rounded=0;whiteSpace=wrap;html=1;dashed=1;fillColor=none;" vertex="1" parent="1">
          <mxGeometry x="680" y="360" width="120" height="20" as="geometry" />
        </mxCell>
        <mxCell id="iPJwZdFhrFqHTdRpXEm0-29" value="502" style="rounded=0;whiteSpace=wrap;html=1;dashed=1;fillColor=none;" vertex="1" parent="1">
          <mxGeometry x="760" y="100" width="40" height="20" as="geometry" />
        </mxCell>
        <mxCell id="iPJwZdFhrFqHTdRpXEm0-31" value="萧 - 南朝 -梁" style="rounded=0;whiteSpace=wrap;html=1;dashed=1;fillColor=none;" vertex="1" parent="1">
          <mxGeometry x="760" y="380" width="560" height="20" as="geometry" />
        </mxCell>
        <mxCell id="iPJwZdFhrFqHTdRpXEm0-32" value="589" style="rounded=0;whiteSpace=wrap;html=1;dashed=1;fillColor=none;" vertex="1" parent="1">
          <mxGeometry x="1440" y="100" width="40" height="20" as="geometry" />
        </mxCell>
        <mxCell id="iPJwZdFhrFqHTdRpXEm0-33" value="X - 南朝 -陈" style="rounded=0;whiteSpace=wrap;html=1;dashed=1;fillColor=none;" vertex="1" parent="1">
          <mxGeometry x="1280" y="400" width="200" height="20" as="geometry" />
        </mxCell>
        <mxCell id="iPJwZdFhrFqHTdRpXEm0-34" value="581" style="rounded=0;whiteSpace=wrap;html=1;dashed=1;fillColor=none;" vertex="1" parent="1">
          <mxGeometry x="1400" y="100" width="40" height="20" as="geometry" />
        </mxCell>
        <mxCell id="iPJwZdFhrFqHTdRpXEm0-35" value="577" style="rounded=0;whiteSpace=wrap;html=1;dashed=1;fillColor=none;" vertex="1" parent="1">
          <mxGeometry x="1360" y="100" width="40" height="20" as="geometry" />
        </mxCell>
        <mxCell id="iPJwZdFhrFqHTdRpXEm0-36" value="宇文 - 北周" style="rounded=0;whiteSpace=wrap;html=1;dashed=1;fillColor=none;" vertex="1" parent="1">
          <mxGeometry x="1280" y="240" width="160" height="20" as="geometry" />
        </mxCell>
        <mxCell id="iPJwZdFhrFqHTdRpXEm0-37" value="高 - 北齐" style="rounded=0;whiteSpace=wrap;html=1;dashed=1;fillColor=none;" vertex="1" parent="1">
          <mxGeometry x="1240" y="270" width="160" height="20" as="geometry" />
        </mxCell>
        <mxCell id="iPJwZdFhrFqHTdRpXEm0-38" value="618" style="rounded=0;whiteSpace=wrap;html=1;dashed=1;fillColor=none;" vertex="1" parent="1">
          <mxGeometry x="1560" y="100" width="40" height="20" as="geometry" />
        </mxCell>
        <mxCell id="iPJwZdFhrFqHTdRpXEm0-39" value="杨 - 隋" style="rounded=0;whiteSpace=wrap;html=1;dashed=1;fillColor=none;" vertex="1" parent="1">
          <mxGeometry x="1400" y="240" width="200" height="20" as="geometry" />
        </mxCell>
      </root>
    </mxGraphModel>
  </diagram>
</mxfile>
